<?xml version="1.0" encoding="iso-8859-1"?>
<svg version="1.1" id="Capa_1" xmlns="http://www.w3.org/2000/svg" xmlns:xlink="http://www.w3.org/1999/xlink" x="0px" y="0px"
	 viewBox="0 0 320.784 320.784" style="enable-background:new 0 0 320.784 320.784;" xml:space="preserve">
<path style="fill:#000000;" d="M231.445,147.383L24.555,6.322C19.853,3.187,13.584,2.665,8.359,5.277S0,13.114,0,19.383v282.122
	c0,5.747,3.135,10.971,8.359,14.106c2.09,1.045,4.702,1.567,7.314,1.567c3.135,0,6.269-1.045,8.882-2.612l206.89-141.061
	c4.18-3.135,6.792-7.837,6.792-13.061C238.237,155.22,235.624,150.518,231.445,147.383z"/>
<path style="fill:#000000;" d="M305.11,21.473c-8.882,0-15.673,6.792-15.673,15.673v246.596c0,8.882,6.792,15.673,15.673,15.673
	c8.882,0,15.673-6.792,15.673-15.673V37.146C320.784,28.265,313.992,21.473,305.11,21.473z"/>
<g>
</g>
<g>
</g>
<g>
</g>
<g>
</g>
<g>
</g>
<g>
</g>
<g>
</g>
<g>
</g>
<g>
</g>
<g>
</g>
<g>
</g>
<g>
</g>
<g>
</g>
<g>
</g>
<g>
</g>
</svg>
